<svg width="98" height="40" viewBox="0 0 98 40" fill="none" xmlns="http://www.w3.org/2000/svg">
<g clip-path="url(#clip0_698_41092)">
<path fill-rule="evenodd" clip-rule="evenodd" d="M13.6166 39.63C12.8145 39.6297 12.0221 39.4525 11.2949 39.111C10.5676 38.7696 9.92315 38.2719 9.40641 37.6529C10.5273 36.7805 11.9398 36.3803 13.347 36.5364C14.7543 36.6925 16.0467 37.3928 16.953 38.4901C15.9931 39.2319 14.817 39.6327 13.6078 39.63H13.6166ZM16.0351 33.1736C16.0337 31.9565 16.4309 30.7731 17.1649 29.8073C18.2481 30.7243 18.9396 32.027 19.0958 33.4449C19.252 34.8628 18.8608 36.2869 18.0034 37.4214C17.3883 36.9009 16.8934 36.251 16.5534 35.5172C16.2134 34.7835 16.0365 33.9835 16.0351 33.1736ZM7.84409 34.7231C7.06705 34.5137 6.34502 34.1347 5.72889 33.6131C5.11277 33.0915 4.61756 32.4399 4.27817 31.7042C5.58562 31.1608 7.05049 31.1472 8.36756 31.6665C9.68462 32.1857 10.7524 33.1977 11.3482 34.4915C10.2714 34.9368 9.05335 35.0437 7.84409 34.7231ZM11.8425 29.1127C12.1546 27.9408 12.84 26.9051 13.7932 26.165C14.6026 27.3338 14.935 28.7721 14.7214 30.1816C14.5077 31.591 13.7644 32.8634 12.6457 33.7346C12.1853 33.0702 11.8747 32.312 11.736 31.5136C11.5972 30.715 11.6336 29.8955 11.8425 29.1127ZM2.63643 28.1153C2.01713 27.6001 1.51693 26.9546 1.17083 26.2239C0.824733 25.4933 0.641108 24.695 0.632812 23.8852C2.04809 23.9335 3.38992 24.5326 4.37716 25.5568C5.36439 26.5812 5.92041 27.9511 5.92873 29.3799C4.72328 29.3353 3.56606 28.8908 2.63643 28.1153ZM8.5767 24.6956C9.37107 23.716 10.4391 23.0927 11.5777 22.8255C11.8347 24.2298 11.5449 25.68 10.7689 26.8743C9.99294 28.0686 8.79042 28.915 7.41159 29.2374C7.26518 28.4404 7.29363 27.6208 7.49492 26.8361C7.69621 26.0515 8.06546 25.3208 8.5767 24.6956ZM1.692 20.3052C1.22589 19.6452 0.908528 18.8903 0.762156 18.0934C0.615781 17.2966 0.643936 16.477 0.844651 15.6923C2.19901 16.1083 3.34133 17.0368 4.03236 18.2835C4.72339 19.5301 4.90952 20.9982 4.55179 22.3803C3.39822 22.0248 2.39303 21.2955 1.692 20.3052ZM8.31188 18.551C9.2936 17.8447 10.4787 17.4848 11.6836 17.5268C11.5688 18.9479 10.916 20.2697 9.86095 21.2182C8.80584 22.1666 7.42933 22.6688 6.01699 22.6207C6.0817 21.8132 6.32064 21.0297 6.71706 20.3251C7.11348 19.6206 7.65781 19.0119 8.31188 18.542V18.551ZM2.50404 12.3795C2.26817 11.6042 2.20362 10.7862 2.31494 9.98304C2.42628 9.17986 2.71076 8.41113 3.14837 7.73089C4.30081 8.55888 5.09132 9.80435 5.35453 11.2069C5.61774 12.6093 5.33326 14.0602 4.56062 15.2559C3.58115 14.5505 2.85856 13.5398 2.50404 12.3795ZM9.3358 12.8248C10.4867 12.471 11.7209 12.5086 12.8487 12.9316C12.295 14.2439 11.2616 15.2905 9.96315 15.8543C8.66478 16.4181 7.20099 16.4558 5.87577 15.9595C6.19207 15.2156 6.66561 14.5506 7.26325 14.0106C7.86089 13.4707 8.56821 13.069 9.3358 12.8337V12.8248ZM5.85812 6.04777C5.65511 4.35575 6.22883 2.75278 7.29684 1.59508C8.28641 2.61445 8.84788 3.97977 8.86437 5.40652C8.88078 6.83327 8.3509 8.21137 7.38511 9.25374C6.54009 8.38386 6.00331 7.25691 5.85812 6.04777ZM12.5045 7.70417C13.7003 7.56008 14.9098 7.81667 15.9468 8.43439C15.1717 9.62778 13.9714 10.4746 12.5945 10.7995C11.2175 11.1244 9.76944 10.9026 8.55017 10.1799C8.99025 9.501 9.57229 8.92762 10.2555 8.49994C10.9386 8.07226 11.7063 7.80064 12.5045 7.70417ZM13.3607 1.63961C14.3039 0.885444 15.4672 0.466023 16.6706 0.446289C16.6276 1.87292 16.0414 3.22797 15.0337 4.22973C14.026 5.23149 12.6744 5.80289 11.26 5.82513C11.2858 5.01501 11.4873 4.22044 11.8503 3.49731C12.2132 2.7742 12.7287 2.14009 13.3607 1.63961Z" fill="#71717A"/>
<mask id="mask0_698_41092" style="mask-type:luminance" maskUnits="userSpaceOnUse" x="26" y="1" width="7" height="8">
<path d="M32.7448 1.45117H26.5391V8.81857H32.7448V1.45117Z" fill="white"/>
</mask>
<g mask="url(#mask0_698_41092)">
<path d="M32.4231 7.01152C32.3152 7.2608 32.1875 7.49026 32.0395 7.70121C31.8378 7.98881 31.6726 8.18787 31.5453 8.29841C31.348 8.47987 31.1366 8.57277 30.9102 8.57808C30.7477 8.57808 30.5517 8.53187 30.3236 8.43808C30.0947 8.34469 29.8844 8.29841 29.692 8.29841C29.4903 8.29841 29.274 8.34469 29.0427 8.43808C28.8109 8.53187 28.6242 8.58077 28.4814 8.58559C28.2644 8.59481 28.048 8.49922 27.832 8.29841C27.6942 8.17816 27.5217 7.97207 27.3151 7.68008C27.0935 7.36826 26.9113 7.00667 26.7686 6.59444C26.6157 6.14918 26.5391 5.718 26.5391 5.30058C26.5391 4.82241 26.6424 4.41 26.8493 4.0644C27.012 3.78681 27.2284 3.56783 27.4992 3.40708C27.77 3.24632 28.0627 3.1644 28.3778 3.15916C28.5502 3.15916 28.7763 3.2125 29.0573 3.31732C29.3375 3.42249 29.5173 3.47583 29.5963 3.47583C29.6552 3.47583 29.8551 3.41347 30.1939 3.28914C30.5143 3.17383 30.7848 3.12609 31.0062 3.14489C31.6066 3.19334 32.0575 3.42998 32.3575 3.85631C31.8206 4.1816 31.5551 4.63721 31.5603 5.22169C31.5652 5.67696 31.7303 6.05581 32.0549 6.35662C32.202 6.49623 32.3662 6.60413 32.549 6.68076C32.5094 6.79571 32.4675 6.90582 32.4231 7.01152ZM31.0463 1.59391C31.0463 1.95075 30.916 2.28392 30.6561 2.59231C30.3426 2.95891 29.9633 3.17075 29.552 3.13732C29.5467 3.09451 29.5437 3.04946 29.5437 3.00211C29.5437 2.65956 29.6928 2.29295 29.9576 1.9932C30.0898 1.84143 30.258 1.71524 30.4619 1.61457C30.6653 1.51541 30.8578 1.46057 31.0389 1.45117C31.0441 1.49888 31.0463 1.54659 31.0463 1.59391Z" fill="#71717A"/>
</g>
<path d="M35.7578 7.99073L37.6321 2.79974H38.2832V3.70987H38.0385L36.6068 7.99073H35.7578ZM36.6607 6.58776L36.8874 5.94023H39.2509L39.4775 6.58776H36.6607ZM39.5279 7.99073L38.0997 3.70987V2.79974H38.5062L40.3768 7.99073H39.5279ZM41.1899 9.29296V4.08399H41.9705V4.69914H42.0316C42.106 4.55525 42.2019 4.43294 42.3194 4.33221C42.4394 4.23149 42.576 4.15354 42.7296 4.09838C42.883 4.04322 43.0509 4.01564 43.2332 4.01564C43.5617 4.01564 43.8471 4.09958 44.0893 4.26746C44.3315 4.43294 44.5186 4.66677 44.6505 4.96895C44.7848 5.26873 44.8519 5.62367 44.8519 6.03376V6.04095C44.8519 6.45345 44.7861 6.81079 44.6541 7.11297C44.5222 7.41275 44.3351 7.64538 44.0929 7.81086C43.8507 7.97394 43.5641 8.05548 43.2332 8.05548C43.0533 8.05548 42.8854 8.0279 42.7296 7.97274C42.5736 7.91518 42.4358 7.83604 42.3159 7.73531C42.1959 7.63459 42.1012 7.51348 42.0316 7.37198H41.9705V9.29296H41.1899ZM43.0101 7.38638C43.2283 7.38638 43.4154 7.33241 43.5713 7.22449C43.7272 7.11657 43.8459 6.96189 43.9274 6.76043C44.0114 6.55898 44.0533 6.31915 44.0533 6.04095V6.03376C44.0533 5.75317 44.0114 5.51215 43.9274 5.31069C43.8459 5.10924 43.7272 4.95455 43.5713 4.84664C43.4154 4.73871 43.2283 4.68475 43.0101 4.68475C42.7943 4.68475 42.6072 4.73991 42.4489 4.85023C42.2906 4.95815 42.1696 5.11284 42.0856 5.31429C42.0016 5.51335 41.9597 5.75317 41.9597 6.03376V6.04095C41.9597 6.31676 42.0016 6.55538 42.0856 6.75683C42.1696 6.95829 42.2906 7.11417 42.4489 7.22449C42.6072 7.33241 42.7943 7.38638 43.0101 7.38638ZM45.7873 9.29296V4.08399H46.5679V4.69914H46.6291C46.7034 4.55525 46.7994 4.43294 46.9168 4.33221C47.0368 4.23149 47.1735 4.15354 47.327 4.09838C47.4804 4.04322 47.6483 4.01564 47.8306 4.01564C48.1591 4.01564 48.4445 4.09958 48.6868 4.26746C48.929 4.43294 49.116 4.66677 49.2479 4.96895C49.3822 5.26873 49.4494 5.62367 49.4494 6.03376V6.04095C49.4494 6.45345 49.3834 6.81079 49.2515 7.11297C49.1196 7.41275 48.9326 7.64538 48.6904 7.81086C48.4481 7.97394 48.1616 8.05548 47.8306 8.05548C47.6507 8.05548 47.4829 8.0279 47.327 7.97274C47.171 7.91518 47.0332 7.83604 46.9132 7.73531C46.7933 7.63459 46.6986 7.51348 46.6291 7.37198H46.5679V9.29296H45.7873ZM47.6075 7.38638C47.8258 7.38638 48.0128 7.33241 48.1688 7.22449C48.3247 7.11657 48.4434 6.96189 48.5249 6.76043C48.6088 6.55898 48.6508 6.31915 48.6508 6.04095V6.03376C48.6508 5.75317 48.6088 5.51215 48.5249 5.31069C48.4434 5.10924 48.3247 4.95455 48.1688 4.84664C48.0128 4.73871 47.8258 4.68475 47.6075 4.68475C47.3917 4.68475 47.2047 4.73991 47.0464 4.85023C46.8881 4.95815 46.767 5.11284 46.683 5.31429C46.5991 5.51335 46.5572 5.75317 46.5572 6.03376V6.04095C46.5572 6.31676 46.5991 6.55538 46.683 6.75683C46.767 6.95829 46.8881 7.11417 47.0464 7.22449C47.2047 7.33241 47.3917 7.38638 47.6075 7.38638ZM54.2375 8.11664C53.8465 8.11664 53.5061 8.05548 53.2159 7.93317C52.9256 7.80846 52.6966 7.63579 52.5288 7.41515C52.3608 7.19451 52.2649 6.9391 52.241 6.64891L52.2373 6.60215H53.0323L53.0359 6.64171C53.0528 6.7976 53.1139 6.9331 53.2194 7.04822C53.3274 7.16334 53.4713 7.25327 53.6511 7.31802C53.8334 7.38278 54.0408 7.41515 54.2735 7.41515C54.4917 7.41515 54.686 7.38038 54.8563 7.31082C55.0265 7.24128 55.1596 7.14535 55.2555 7.02304C55.3539 6.90073 55.403 6.76043 55.403 6.60215V6.59855C55.403 6.39949 55.3275 6.23402 55.1764 6.10211C55.0253 5.97021 54.7783 5.86709 54.4354 5.79274L53.867 5.67402C53.3417 5.56131 52.9592 5.38264 52.7194 5.13802C52.4796 4.891 52.3597 4.57563 52.3597 4.19191V4.18832C52.3621 3.88854 52.4424 3.62473 52.6007 3.3969C52.7614 3.16906 52.9832 2.99159 53.2662 2.86449C53.5492 2.73738 53.8741 2.67383 54.2411 2.67383C54.608 2.67383 54.9282 2.73738 55.2016 2.86449C55.4774 2.98919 55.6945 3.15947 55.8527 3.37531C56.0134 3.59115 56.1034 3.83458 56.1225 4.10557L56.1261 4.15234H55.3383L55.3311 4.10557C55.3095 3.96408 55.2507 3.83817 55.1548 3.72785C55.0613 3.61753 54.9354 3.5312 54.7771 3.46884C54.6212 3.40409 54.439 3.37291 54.2303 3.37531C54.0288 3.37531 53.849 3.40649 53.6907 3.46884C53.5324 3.5288 53.4065 3.61633 53.313 3.73145C53.2218 3.84656 53.1763 3.98566 53.1763 4.14874V4.15234C53.1763 4.3442 53.2494 4.50488 53.3957 4.63439C53.5444 4.76149 53.7854 4.86102 54.1188 4.93297L54.6872 5.05888C55.0493 5.13562 55.3431 5.23755 55.5685 5.36465C55.794 5.49176 55.9582 5.64885 56.0613 5.83591C56.1669 6.02057 56.2196 6.24121 56.2196 6.49782V6.50142C56.2196 6.83238 56.1381 7.11897 55.975 7.36119C55.8143 7.60101 55.5853 7.78688 55.2879 7.91878C54.9905 8.05069 54.6404 8.11664 54.2375 8.11664ZM58.6658 8.01591C58.239 8.01591 57.9296 7.93437 57.7377 7.77129C57.5483 7.60581 57.4536 7.33601 57.4536 6.96189V4.69914H56.842V4.08399H57.4536V3.09832H58.2522V4.08399H59.0903V4.69914H58.2522V6.77122C58.2522 6.98227 58.2941 7.13455 58.3781 7.22809C58.462 7.31922 58.6011 7.36478 58.7954 7.36478C58.8529 7.36478 58.9021 7.36359 58.9429 7.36119C58.986 7.35879 59.0352 7.35519 59.0903 7.3504V7.97634C59.028 7.98593 58.9608 7.99433 58.8889 8.00152C58.8169 8.01111 58.7426 8.01591 58.6658 8.01591ZM61.6157 8.06627C61.2344 8.06627 60.9046 7.98473 60.6264 7.82165C60.3506 7.65857 60.1384 7.42594 59.9897 7.12376C59.841 6.81918 59.7666 6.45825 59.7666 6.04095V6.03376C59.7666 5.61407 59.841 5.25313 59.9897 4.95095C60.1408 4.64878 60.3542 4.41615 60.63 4.25307C60.9082 4.08999 61.2368 4.00845 61.6157 4.00845C61.997 4.00845 62.3256 4.08999 62.6013 4.25307C62.8772 4.41375 63.0894 4.64638 63.2381 4.95095C63.3892 5.25313 63.4648 5.61407 63.4648 6.03376V6.04095C63.4648 6.45825 63.3892 6.81918 63.2381 7.12376C63.0894 7.42594 62.8772 7.65857 62.6013 7.82165C62.3279 7.98473 61.9994 8.06627 61.6157 8.06627ZM61.6157 7.41155C61.8387 7.41155 62.0282 7.35759 62.1841 7.24967C62.3399 7.13936 62.4586 6.98227 62.5402 6.77842C62.6217 6.57456 62.6625 6.32875 62.6625 6.04095V6.03376C62.6625 5.74358 62.6217 5.49655 62.5402 5.29271C62.4586 5.08886 62.3399 4.93297 62.1841 4.82505C62.0282 4.71473 61.8387 4.65957 61.6157 4.65957C61.3927 4.65957 61.2032 4.71473 61.0473 4.82505C60.8914 4.93297 60.7715 5.08886 60.6875 5.29271C60.6061 5.49655 60.5652 5.74358 60.5652 6.03376V6.04095C60.5652 6.32875 60.6061 6.57456 60.6875 6.77842C60.7715 6.98227 60.8914 7.13936 61.0473 7.24967C61.2032 7.35759 61.3927 7.41155 61.6157 7.41155ZM64.3928 7.99073V4.08399H65.1735V4.67396H65.2346C65.3042 4.46531 65.4265 4.30343 65.6016 4.18832C65.779 4.0732 65.9972 4.01564 66.2563 4.01564C66.321 4.01564 66.3846 4.01924 66.447 4.02643C66.5093 4.03363 66.5597 4.04202 66.5981 4.05162V4.77109C66.5285 4.7567 66.459 4.74591 66.3894 4.73871C66.3222 4.73152 66.2514 4.72792 66.1772 4.72792C65.9781 4.72792 65.803 4.76629 65.6519 4.84304C65.5032 4.91978 65.3857 5.0277 65.2994 5.1668C65.2154 5.3035 65.1735 5.46658 65.1735 5.65604V7.99073H64.3928ZM68.8896 8.06627C68.5083 8.06627 68.1808 7.98473 67.9074 7.82165C67.6341 7.65617 67.423 7.42234 67.2743 7.12016C67.128 6.81799 67.0549 6.46065 67.0549 6.04815V6.04455C67.0549 5.63686 67.128 5.28072 67.2743 4.97614C67.423 4.67156 67.6317 4.43414 67.9003 4.26386C68.1713 4.09358 68.4879 4.00845 68.85 4.00845C69.2145 4.00845 69.5274 4.08999 69.7889 4.25307C70.0527 4.41615 70.2554 4.64518 70.3968 4.94016C70.5383 5.23275 70.6091 5.5757 70.6091 5.96901V6.24241H67.4506V5.68482H70.2206L69.8465 6.20284V5.88987C69.8465 5.61167 69.8033 5.38144 69.7169 5.19918C69.633 5.01451 69.5167 4.87661 69.368 4.78548C69.2193 4.69434 69.0479 4.64878 68.8536 4.64878C68.6593 4.64878 68.4855 4.69674 68.3319 4.79268C68.1808 4.8862 68.061 5.02531 67.9723 5.20997C67.8859 5.39463 67.8427 5.62126 67.8427 5.88987V6.20284C67.8427 6.45945 67.8859 6.67889 67.9723 6.86116C68.0585 7.04342 68.1808 7.18252 68.3391 7.27845C68.4999 7.37438 68.6893 7.42234 68.9075 7.42234C69.0754 7.42234 69.2193 7.39956 69.3392 7.35399C69.4616 7.30603 69.5611 7.24727 69.6378 7.17772C69.7169 7.10818 69.7709 7.03983 69.7997 6.97268L69.8141 6.94389H70.5695L70.5623 6.97627C70.5288 7.10578 70.47 7.23528 70.3861 7.36478C70.3021 7.49189 70.1906 7.60821 70.0515 7.71373C69.9148 7.81926 69.7493 7.90439 69.555 7.96914C69.3632 8.03389 69.1414 8.06627 68.8896 8.06627Z" fill="#71717A"/>
<path d="M24.2422 22.8954V14.4601H29.5092V15.5941H25.5517V18.2597H29.176V19.3646H25.5517V22.8954H24.2422ZM33.7298 23.0182C33.1101 23.0182 32.5782 22.8856 32.1339 22.6206C31.6896 22.3517 31.3467 21.9717 31.105 21.4807C30.8673 20.9897 30.7485 20.409 30.7485 19.7387V19.7329C30.7485 19.0704 30.8673 18.4917 31.105 17.9967C31.3467 17.5018 31.6857 17.1159 32.1222 16.8393C32.5626 16.5625 33.077 16.4242 33.6655 16.4242C34.2579 16.4242 34.7664 16.5567 35.1912 16.8217C35.6199 17.0867 35.9492 17.4588 36.1792 17.9382C36.409 18.4137 36.5241 18.971 36.5241 19.6101V20.0544H31.3915V19.1483H35.8927L35.2847 19.9901V19.4815C35.2847 19.0295 35.2146 18.6553 35.0743 18.3591C34.9379 18.059 34.7489 17.8349 34.5072 17.6868C34.2656 17.5388 33.987 17.4647 33.6713 17.4647C33.3557 17.4647 33.0731 17.5427 32.8237 17.6985C32.5782 17.8505 32.3833 18.0766 32.2391 18.3766C32.0988 18.6767 32.0287 19.045 32.0287 19.4815V19.9901C32.0287 20.4071 32.0988 20.7637 32.2391 21.0598C32.3794 21.356 32.5782 21.582 32.8354 21.7379C33.0965 21.8939 33.4044 21.9717 33.759 21.9717C34.0318 21.9717 34.2656 21.9348 34.4605 21.8607C34.6592 21.7828 34.821 21.6873 34.9457 21.5743C35.0743 21.4612 35.1619 21.3502 35.2087 21.241L35.2321 21.1943H36.4597L36.4481 21.2469C36.3935 21.4574 36.298 21.6678 36.1616 21.8783C36.0252 22.0848 35.844 22.2738 35.6179 22.4453C35.3958 22.6167 35.1269 22.7551 34.8112 22.8603C34.4995 22.9655 34.139 23.0182 33.7298 23.0182ZM39.7743 23.0006C39.3729 23.0006 39.0124 22.9246 38.6928 22.7726C38.3771 22.6167 38.1277 22.3966 37.9446 22.1121C37.7614 21.8276 37.6698 21.4944 37.6698 21.1125V21.1007C37.6698 20.7188 37.7614 20.3935 37.9446 20.1246C38.1316 19.8557 38.4005 19.6452 38.7512 19.4932C39.1059 19.3373 39.5346 19.2437 40.0373 19.2126L42.3815 19.0723V19.9667L40.2127 20.107C39.7762 20.1343 39.4547 20.2278 39.2481 20.3876C39.0416 20.5435 38.9384 20.7637 38.9384 21.0482V21.0598C38.9384 21.3482 39.0494 21.5762 39.2715 21.7438C39.4936 21.9075 39.7743 21.9893 40.1133 21.9893C40.429 21.9893 40.7095 21.9269 40.9551 21.8023C41.2045 21.6736 41.3993 21.5022 41.5397 21.2878C41.68 21.0696 41.7501 20.8241 41.7501 20.5513V18.5521C41.7501 18.2013 41.641 17.9344 41.4228 17.7512C41.2084 17.5641 40.8888 17.4706 40.4641 17.4706C40.1094 17.4706 39.8191 17.533 39.593 17.6576C39.3709 17.7824 39.2228 17.9577 39.1487 18.1837L39.137 18.2013H37.9153L37.9211 18.1604C37.9718 17.8096 38.1102 17.5056 38.3362 17.2484C38.5661 16.9873 38.8662 16.7846 39.2365 16.6405C39.6106 16.4963 40.0373 16.4242 40.5166 16.4242C41.0506 16.4242 41.5026 16.5099 41.8729 16.6814C42.247 16.849 42.5295 17.0926 42.7205 17.4122C42.9153 17.7278 43.0128 18.1077 43.0128 18.5521V22.8954H41.7501V21.9952H41.6566C41.5318 22.2095 41.376 22.3926 41.1889 22.5446C41.0019 22.6927 40.7895 22.8058 40.5517 22.8837C40.314 22.9616 40.0548 23.0006 39.7743 23.0006ZM47.1983 22.9363C46.5046 22.9363 46.0019 22.8038 45.6901 22.5388C45.3823 22.2699 45.2283 21.8315 45.2283 21.2235V17.5466H44.2345V16.5469H45.2283V14.9452H46.526V16.5469H47.8881V17.5466H46.526V20.9137C46.526 21.2566 46.5943 21.5042 46.7307 21.6561C46.8671 21.8042 47.093 21.8783 47.4087 21.8783C47.5023 21.8783 47.5822 21.8763 47.6484 21.8724C47.7186 21.8685 47.7984 21.8627 47.8881 21.8548V22.872C47.7868 22.8876 47.6776 22.9012 47.5607 22.913C47.4438 22.9286 47.323 22.9363 47.1983 22.9363ZM51.489 23.0182C51.0136 23.0182 50.6122 22.9266 50.2849 22.7434C49.9614 22.5563 49.7178 22.2874 49.5541 21.9367C49.3944 21.582 49.3144 21.1553 49.3144 20.6565V16.5469H50.583V20.3584C50.583 20.8806 50.6863 21.2722 50.8928 21.5334C51.0993 21.7944 51.4365 21.925 51.9041 21.925C52.1535 21.925 52.3757 21.888 52.5705 21.8139C52.7654 21.736 52.929 21.625 53.0615 21.4807C53.194 21.3366 53.2915 21.1631 53.3539 20.9605C53.4201 20.7578 53.4532 20.5279 53.4532 20.2707V16.5469H54.7276V22.8954H53.4532V21.9367H53.3597C53.2583 22.1628 53.12 22.3576 52.9446 22.5213C52.7693 22.681 52.5588 22.8038 52.3133 22.8895C52.0717 22.9753 51.797 23.0182 51.489 23.0182ZM56.5514 22.8954V16.5469H57.82V17.5056H57.9193C58.0324 17.1666 58.2311 16.9036 58.5156 16.7165C58.804 16.5294 59.1587 16.4359 59.5795 16.4359C59.6847 16.4359 59.7881 16.4417 59.8894 16.4535C59.9907 16.4651 60.0726 16.4788 60.1348 16.4944V17.6635C60.0219 17.6401 59.9088 17.6226 59.7958 17.6108C59.6867 17.5992 59.5717 17.5933 59.4509 17.5933C59.1275 17.5933 58.843 17.6557 58.5974 17.7804C58.3558 17.9051 58.1649 18.0805 58.0246 18.3065C57.8881 18.5286 57.82 18.7936 57.82 19.1015V22.8954H56.5514ZM63.8586 23.0182C63.2389 23.0182 62.707 22.8856 62.2627 22.6206C61.8184 22.3517 61.4755 21.9717 61.2339 21.4807C60.9961 20.9897 60.8773 20.409 60.8773 19.7387V19.7329C60.8773 19.0704 60.9961 18.4917 61.2339 17.9967C61.4755 17.5018 61.8145 17.1159 62.251 16.8393C62.6914 16.5625 63.2058 16.4242 63.7943 16.4242C64.3867 16.4242 64.8952 16.5567 65.32 16.8217C65.7487 17.0867 66.078 17.4588 66.308 17.9382C66.5379 18.4137 66.6529 18.971 66.6529 19.6101V20.0544H61.5203V19.1483H66.0215L65.4135 19.9901V19.4815C65.4135 19.0295 65.3434 18.6553 65.2031 18.3591C65.0667 18.059 64.8777 17.8349 64.6361 17.6868C64.3944 17.5388 64.1158 17.4647 63.8001 17.4647C63.4845 17.4647 63.2019 17.5427 62.9525 17.6985C62.707 17.8505 62.5121 18.0766 62.3679 18.3766C62.2277 18.6767 62.1574 19.045 62.1574 19.4815V19.9901C62.1574 20.4071 62.2277 20.7637 62.3679 21.0598C62.5082 21.356 62.707 21.582 62.9642 21.7379C63.2253 21.8939 63.5332 21.9717 63.8878 21.9717C64.1606 21.9717 64.3944 21.9348 64.5893 21.8607C64.7881 21.7828 64.9498 21.6873 65.0745 21.5743C65.2031 21.4612 65.2908 21.3502 65.3375 21.241L65.361 21.1943H66.5886L66.5769 21.2469C66.5223 21.4574 66.4268 21.6678 66.2904 21.8783C66.154 22.0848 65.9728 22.2738 65.7468 22.4453C65.5246 22.6167 65.2557 22.7551 64.9401 22.8603C64.6283 22.9655 64.2678 23.0182 63.8586 23.0182ZM70.4759 23.0006C69.9459 23.0006 69.4822 22.8682 69.0846 22.6031C68.6911 22.3342 68.3851 21.9543 68.1669 21.4632C67.9526 20.9722 67.8454 20.3935 67.8454 19.727V19.7153C67.8454 19.045 67.9526 18.4643 68.1669 17.9733C68.3812 17.4823 68.6852 17.1042 69.0788 16.8393C69.4724 16.5704 69.9381 16.4359 70.4759 16.4359C70.7682 16.4359 71.041 16.4827 71.2943 16.5762C71.5477 16.6658 71.7717 16.7944 71.9666 16.962C72.1614 17.1257 72.3154 17.3225 72.4284 17.5524H72.5219V14.0566H73.7963V22.8954H72.5219V21.8957H72.4284C72.3037 22.1257 72.1459 22.3245 71.9549 22.4921C71.764 22.6557 71.5437 22.7824 71.2943 22.872C71.0449 22.9578 70.7721 23.0006 70.4759 23.0006ZM70.8383 21.9133C71.1891 21.9133 71.4931 21.8256 71.7503 21.6503C72.0075 21.4749 72.2043 21.2235 72.3407 20.8962C72.4771 20.5649 72.5453 20.1752 72.5453 19.727V19.7153C72.5453 19.2633 72.4752 18.8735 72.3348 18.5462C72.1985 18.2188 72.0017 17.9675 71.7445 17.7921C71.4912 17.6128 71.1891 17.5232 70.8383 17.5232C70.4877 17.5232 70.1837 17.6128 69.9264 17.7921C69.6731 17.9675 69.4783 18.2188 69.3419 18.5462C69.2094 18.8696 69.1431 19.2593 69.1431 19.7153V19.727C69.1431 20.1791 69.2094 20.5688 69.3419 20.8962C69.4783 21.2235 69.6731 21.4749 69.9264 21.6503C70.1837 21.8256 70.4877 21.9133 70.8383 21.9133Z" fill="#71717A"/>
<path d="M37.5176 36.9804V36.258L39.784 33.8877C40.0861 33.573 40.3206 33.3149 40.4875 33.1135C40.6542 32.9088 40.7707 32.7263 40.8369 32.5657C40.9061 32.4052 40.9407 32.2321 40.9407 32.0464V32.037C40.9407 31.8135 40.892 31.6152 40.7943 31.442C40.6999 31.2658 40.563 31.1288 40.3835 31.0313C40.2041 30.9305 39.9901 30.8802 39.7414 30.8802C39.4896 30.8802 39.2677 30.9321 39.0757 31.036C38.8837 31.1398 38.7342 31.2846 38.6271 31.4704C38.5201 31.6561 38.4667 31.8732 38.4667 32.122V32.1408L37.4657 32.1361L37.4609 32.1266C37.4641 31.7112 37.5648 31.3445 37.7631 31.0265C37.9614 30.7055 38.2369 30.4553 38.5893 30.2758C38.9419 30.0932 39.3464 30.002 39.8028 30.002C40.2246 30.002 40.6008 30.0854 40.9312 30.2522C41.2649 30.4159 41.5277 30.6441 41.7198 30.9368C41.9118 31.2264 42.0078 31.5585 42.0078 31.9331V31.9473C42.0078 32.2053 41.9605 32.4556 41.8662 32.698C41.7717 32.9403 41.608 33.2063 41.3751 33.4959C41.1453 33.7855 40.8242 34.1348 40.4119 34.5441L38.6933 36.258L38.9671 35.7811V36.258L38.698 36.0739H42.1164V36.9804H37.5176ZM45.9031 37.1456C45.3773 37.1456 44.9272 37.0008 44.5527 36.7113C44.1781 36.4217 43.8901 36.0109 43.6886 35.4789C43.4872 34.9438 43.3865 34.3095 43.3865 33.5762V33.5667C43.3865 32.8333 43.4872 32.2006 43.6886 31.6686C43.8901 31.1367 44.1781 30.726 44.5527 30.4363C44.9272 30.1468 45.3773 30.002 45.9031 30.002C46.4287 30.002 46.8788 30.1468 47.2534 30.4363C47.628 30.726 47.916 31.1367 48.1174 31.6686C48.3221 32.2006 48.4244 32.8333 48.4244 33.5667V33.5762C48.4244 34.3095 48.3221 34.9438 48.1174 35.4789C47.916 36.0109 47.628 36.4217 47.2534 36.7113C46.8788 37.0008 46.4287 37.1456 45.9031 37.1456ZM45.9031 36.2627C46.2084 36.2627 46.468 36.1541 46.6821 35.9369C46.8993 35.7197 47.0645 35.4113 47.1778 35.0115C47.2943 34.6086 47.3525 34.1301 47.3525 33.5762V33.5667C47.3525 33.0127 47.2943 32.5358 47.1778 32.1361C47.0645 31.7363 46.8993 31.4295 46.6821 31.2154C46.468 30.9982 46.2084 30.8896 45.9031 30.8896C45.6009 30.8896 45.3412 30.9982 45.124 31.2154C44.9099 31.4295 44.7447 31.7363 44.6282 32.1361C44.5149 32.5358 44.4582 33.0127 44.4582 33.5667V33.5762C44.4582 34.1301 44.5149 34.6086 44.6282 35.0115C44.7447 35.4113 44.9099 35.7197 45.124 35.9369C45.3412 36.1541 45.6009 36.2627 45.9031 36.2627ZM49.7841 36.9804V36.258L52.0505 33.8877C52.3527 33.573 52.5871 33.3149 52.754 33.1135C52.9209 32.9088 53.0373 32.7263 53.1034 32.5657C53.1726 32.4052 53.2072 32.2321 53.2072 32.0464V32.037C53.2072 31.8135 53.1585 31.6152 53.0609 31.442C52.9665 31.2658 52.8295 31.1288 52.6501 31.0313C52.4707 30.9305 52.2567 30.8802 52.008 30.8802C51.7562 30.8802 51.5342 30.9321 51.3422 31.036C51.1502 31.1398 51.0007 31.2846 50.8937 31.4704C50.7866 31.6561 50.7332 31.8732 50.7332 32.122V32.1408L49.7322 32.1361L49.7275 32.1266C49.7306 31.7112 49.8314 31.3445 50.0297 31.0265C50.228 30.7055 50.5034 30.4553 50.856 30.2758C51.2084 30.0932 51.6129 30.002 52.0693 30.002C52.4911 30.002 52.8673 30.0854 53.1978 30.2522C53.5315 30.4159 53.7943 30.6441 53.9863 30.9368C54.1783 31.2264 54.2743 31.5585 54.2743 31.9331V31.9473C54.2743 32.2053 54.2271 32.4556 54.1327 32.698C54.0382 32.9403 53.8746 33.2063 53.6417 33.4959C53.4119 33.7855 53.0908 34.1348 52.6785 34.5441L50.9598 36.258L51.2337 35.7811V36.258L50.9645 36.0739H54.3829V36.9804H49.7841ZM58.1271 37.1456C57.6833 37.1456 57.2898 37.0606 56.9467 36.8907C56.6036 36.7207 56.3298 36.4894 56.1252 36.1966C55.9206 35.9007 55.8009 35.5702 55.7663 35.2051L55.7616 35.1437H56.7578L56.7626 35.1815C56.7941 35.3797 56.8696 35.5608 56.9892 35.7245C57.112 35.8882 57.2725 36.0172 57.4708 36.1116C57.6691 36.206 57.8911 36.2533 58.1365 36.2533C58.4167 36.2533 58.6638 36.1919 58.8778 36.0691C59.0919 35.9433 59.2587 35.7717 59.3783 35.5544C59.5011 35.3373 59.5625 35.087 59.5625 34.8037V34.7943C59.5625 34.5142 59.5011 34.2655 59.3783 34.0483C59.2555 33.8311 59.0887 33.6627 58.8778 33.5431C58.6669 33.4203 58.423 33.3589 58.146 33.3589C57.9414 33.3589 57.751 33.3904 57.5746 33.4534C57.4016 33.5132 57.2473 33.6045 57.112 33.7273C57.0522 33.7839 56.9955 33.8453 56.942 33.9114C56.8885 33.9744 56.8413 34.0451 56.8004 34.1238H55.8844L56.2244 30.1672H60.1904V31.0643H57.06L56.8523 33.2362H56.9279C57.0254 33.082 57.1466 32.9513 57.2914 32.8443C57.4393 32.7373 57.6062 32.6554 57.7919 32.5988C57.9776 32.5421 58.1743 32.5138 58.3821 32.5138C58.8102 32.5138 59.1879 32.6114 59.5152 32.8065C59.8458 33.0017 60.1054 33.2692 60.2943 33.6092C60.4831 33.9491 60.5776 34.3379 60.5776 34.7754V34.7849C60.5776 35.2476 60.4721 35.6568 60.2613 36.0125C60.0535 36.3682 59.7655 36.6468 59.3972 36.8482C59.032 37.0465 58.6087 37.1456 58.1271 37.1456Z" fill="#71717A"/>
<path fill-rule="evenodd" clip-rule="evenodd" d="M84.3485 39.63C85.1509 39.6297 85.9436 39.4525 86.6701 39.111C87.3974 38.7696 88.0423 38.2719 88.5591 37.6529C87.4383 36.7805 86.026 36.3803 84.6187 36.5364C83.2113 36.6925 81.9182 37.3928 81.0123 38.4901C81.9721 39.2319 83.1485 39.6327 84.3574 39.63H84.3485ZM81.9305 33.1736C81.9313 31.9565 81.5345 30.7731 80.8005 29.8073C79.7173 30.7243 79.0258 32.027 78.8696 33.4449C78.7134 34.8628 79.1046 36.2869 79.9619 37.4214C80.5771 36.9009 81.072 36.251 81.412 35.5172C81.7517 34.7835 81.9289 33.9835 81.9305 33.1736ZM90.1215 34.7231C90.8987 34.5137 91.6203 34.1347 92.2366 33.6131C92.8529 33.0915 93.3476 32.4399 93.6872 31.7042C92.3795 31.1608 90.915 31.1472 89.5974 31.6665C88.2807 32.1857 87.2129 33.1977 86.617 34.4915C87.6938 34.9368 88.9117 35.0437 90.1215 34.7231ZM86.1231 29.1127C85.8105 27.9408 85.1256 26.9051 84.1721 26.165C83.3631 27.3338 83.0301 28.7721 83.244 30.1816C83.4578 31.591 84.2007 32.8634 85.3199 33.7346C85.7803 33.0702 86.0905 32.312 86.2293 31.5136C86.368 30.715 86.3321 29.8955 86.1231 29.1127ZM95.3289 28.1153C95.9485 27.6001 96.448 26.9546 96.7942 26.2239C97.1403 25.4933 97.324 24.695 97.3329 23.8852C95.9174 23.9335 94.5754 24.5326 93.5885 25.5568C92.6007 26.5812 92.0448 27.9511 92.0366 29.3799C93.2423 29.3353 94.3991 28.8908 95.3289 28.1153ZM89.3885 24.6956C88.5942 23.716 87.5264 23.0927 86.3876 22.8255C86.1305 24.2298 86.4203 25.68 87.1966 26.8743C87.9721 28.0686 89.1746 28.915 90.5542 29.2374C90.7003 28.4404 90.6717 27.6208 90.4701 26.8361C90.2693 26.0515 89.9003 25.3208 89.3885 24.6956ZM96.2734 20.3052C96.7395 19.6452 97.057 18.8903 97.2031 18.0934C97.3493 17.2966 97.3215 16.477 97.1207 15.6923C95.7664 16.1083 94.6244 17.0368 93.9329 18.2835C93.2423 19.5301 93.0562 20.9982 93.4138 22.3803C94.5672 22.0248 95.5721 21.2955 96.2734 20.3052ZM89.6538 18.551C88.6717 17.8447 87.4864 17.4848 86.2815 17.5268C86.3966 18.9479 87.0497 20.2697 88.1044 21.2182C89.1599 22.1666 90.5362 22.6688 91.9485 22.6207C91.884 21.8132 91.6448 21.0297 91.248 20.3251C90.8521 19.6206 90.3076 19.0119 89.6538 18.542V18.551ZM95.4611 12.3795C95.697 11.6042 95.7615 10.7862 95.6505 9.98304C95.5395 9.17986 95.2546 8.41113 94.817 7.73089C93.6644 8.55888 92.8742 9.80435 92.6105 11.2069C92.3476 12.6093 92.6317 14.0602 93.4048 15.2559C94.3844 14.5505 95.1068 13.5398 95.4611 12.3795ZM88.6293 12.8248C87.4783 12.471 86.2448 12.5086 85.1166 12.9316C85.6701 14.2439 86.7036 15.2905 88.0023 15.8543C89.3003 16.4181 90.7648 16.4558 92.0897 15.9595C91.7729 15.2156 91.2995 14.5506 90.7019 14.0106C90.1044 13.4707 89.3974 13.069 88.6293 12.8337V12.8248ZM92.1076 6.04777C92.3101 4.35575 91.7362 2.75278 90.6685 1.59508C89.6791 2.61445 89.1174 3.97977 89.1011 5.40652C89.0848 6.83327 89.6146 8.21137 90.5803 9.25374C91.4252 8.38386 91.9623 7.25691 92.1076 6.04777ZM85.4611 7.70417C84.2652 7.56008 83.0554 7.81667 82.0187 8.43439C82.7934 9.62778 83.9942 10.4746 85.3705 10.7995C86.7476 11.1244 88.1958 10.9026 89.4154 10.1799C88.9754 9.501 88.3934 8.92762 87.7101 8.49994C87.0268 8.07226 86.2595 7.80064 85.4611 7.70417ZM84.6048 1.63961C83.6611 0.885444 82.4978 0.466023 81.2947 0.446289C81.3378 1.87292 81.924 3.22797 82.9313 4.22973C83.9395 5.23149 85.2913 5.80289 86.7052 5.82513C86.6799 5.01501 86.4782 4.22044 86.115 3.49731C85.7525 2.7742 85.2366 2.14009 84.6048 1.63961Z" fill="#71717A"/>
</g>
<defs>
<clipPath id="clip0_698_41092">
<rect width="97.9592" height="40" fill="white"/>
</clipPath>
</defs>
</svg>
