<svg width="106" height="34" viewBox="0 0 106 34" fill="none" xmlns="http://www.w3.org/2000/svg">
<mask id="mask0_698_41291" style="mask-type:alpha" maskUnits="userSpaceOnUse" x="0" y="0" width="106" height="34">
<path d="M15.5312 1C17.6518 1 19.588 1.39106 21.3398 2.18164C22.6399 2.76799 23.7564 3.5502 24.7061 4.51855C25.3695 5.20256 25.471 6.2682 24.9365 7.0498C24.5585 7.60059 24.0788 8.08939 23.4795 8.49805C22.7326 9.01332 21.4881 8.95088 20.8242 8.33789C19.478 7.1119 17.7808 6.49902 15.7246 6.49902C13.1615 6.49912 11.0869 7.42362 9.51953 9.28027C7.943 11.137 7.15918 13.6422 7.15918 16.7959C7.15921 19.9495 8.14566 22.6413 10.1094 24.5957C12.0825 26.5591 14.8769 27.5361 18.5098 27.5361C18.5741 27.5361 18.6372 27.5401 18.6992 27.5469C21.7911 27.5237 24.5424 26.6648 26.9707 24.9561C29.4233 23.2326 31.3594 20.8516 32.7793 17.8223C34.1992 14.7929 34.9003 11.3371 34.9004 7.46387V3.16406C34.9004 2.37351 35.49 1.70664 36.292 1.57324C36.8268 1.4844 37.3805 1.44922 37.9521 1.44922C38.4961 1.44922 39.0404 1.4932 39.5752 1.58203C40.3772 1.70653 40.9395 2.40873 40.9395 3.19043V16.6758C40.9395 20.3892 41.557 23.0816 42.8018 24.7695C44.0372 26.4574 45.9921 27.2929 48.6475 27.293C54.9727 27.293 58.1445 22.8325 58.1445 13.9219V3.08398C58.1445 2.33773 58.7074 1.69762 59.4727 1.57324C60.0073 1.48444 60.5604 1.44923 61.1318 1.44922C61.7035 1.44922 62.3033 1.4931 62.875 1.59082C63.6402 1.71522 64.1845 2.38175 64.1846 3.12793V20.3184C64.1846 22.5749 64.5529 24.3342 65.2812 25.5957C66.0097 26.8572 67.2363 27.4795 68.9697 27.4795C69.0307 27.4795 69.0898 27.4844 69.1475 27.4883C70.371 27.4699 71.6197 27.2686 72.8848 26.8877C74.2124 26.479 75.7611 25.7946 77.5312 24.8086C75.8072 21.9125 74.9404 18.5008 74.9404 14.5742C74.9405 11.9271 75.4474 9.5996 76.4707 7.57422C77.485 5.54866 78.9053 3.94906 80.7217 2.77637C82.5381 1.60371 84.5943 1.01758 86.8994 1.01758C88.8448 1.01758 90.569 1.45265 92.0811 2.33203C93.584 3.20266 94.7552 4.41131 95.6035 5.94824C96.4425 7.48514 96.8672 9.25301 96.8672 11.2607C96.8672 13.9881 96.0366 16.4847 94.377 18.7412C92.7173 20.9976 89.9144 23.4494 85.9775 26.0967C87.2315 26.7452 89.2136 27.5278 91.6846 27.5723C92.0073 27.5723 93.5843 27.5897 95.5391 27.0566C97.0604 26.6391 98.1117 26.0793 99.1904 25.5107C99.8543 25.1643 100.592 24.7465 101.44 24.1602C102.436 23.4854 103.754 23.7785 104.354 24.7998L104.372 24.8271C104.658 25.3157 104.824 25.7865 104.935 26.2129C105.128 26.9502 104.888 27.7231 104.308 28.2383C103.459 28.9845 102.27 29.7931 100.979 30.5215C100.445 30.8235 98.8674 31.6849 96.6084 32.2979C94.6445 32.8309 92.8651 32.9911 91.4268 33H91.3623C89.2418 33 87.2501 32.6625 85.3877 31.9785C83.5252 31.2945 81.9758 30.3614 80.7402 29.1621C76.4897 31.7206 72.4236 32.9999 68.5234 33L68.5049 32.9912C68.474 32.9912 68.4434 32.9869 68.4131 32.9854C64.2148 32.9586 61.3696 31.1657 59.8779 27.6123C58.6425 29.3623 57.0479 30.6953 55.1025 31.6104C53.1571 32.5254 50.8516 32.9873 48.1963 32.9873C41.7328 32.9873 37.62 29.9401 35.8496 23.8369C33.9041 26.6974 31.4237 28.9359 28.418 30.5527C25.4121 32.1696 22.0469 32.9873 18.3311 32.9873L18.3037 32.9785C18.2581 32.9785 18.2131 32.9731 18.1689 32.9707C18.1505 32.971 18.132 32.9736 18.1133 32.9736L18.1221 32.9824C14.6737 32.9824 11.6589 32.3247 9.0957 31.001C6.52333 29.6773 4.54103 27.8387 3.12109 25.4668C1.70115 23.1037 1 20.3135 1 17.1152C1.00005 13.9172 1.61763 11.181 2.8623 8.76465C4.09784 6.35708 5.81335 4.45622 8.00781 3.07031C10.1838 1.69334 12.7007 1.00002 15.5312 1ZM86.7061 6.3125C84.982 6.3125 83.5526 7.05852 82.4277 8.55078C81.3028 10.0433 80.7314 11.8742 80.7314 14.0508L80.7217 14.0596C80.7217 17.4264 81.3393 20.1183 82.584 22.1172C85.4608 20.1982 87.5999 18.3234 88.9922 16.4844C90.3844 14.6543 91.0859 12.9044 91.0859 11.2432C91.0859 9.70623 90.6983 8.50647 89.9238 7.62695C89.1494 6.75646 88.0797 6.31256 86.7061 6.3125Z" fill="#3F3F46"/>
<path d="M15.5312 1L15.5312 0.5L15.5312 0.5L15.5312 1ZM21.3398 2.18164L21.1342 2.63738L21.1343 2.63743L21.3398 2.18164ZM24.7061 4.51855L25.065 4.17044L25.063 4.16846L24.7061 4.51855ZM24.9365 7.0498L25.3488 7.33274L25.3493 7.33203L24.9365 7.0498ZM23.4795 8.49805L23.1978 8.08494L23.1956 8.08649L23.4795 8.49805ZM20.8242 8.33789L21.1634 7.97053L21.1609 7.96822L20.8242 8.33789ZM15.7246 6.49902L15.7246 5.99902L15.7246 5.99902L15.7246 6.49902ZM9.51953 9.28027L9.90067 9.6039L9.90159 9.60281L9.51953 9.28027ZM7.15918 16.7959L6.65918 16.7959L6.65918 16.7959L7.15918 16.7959ZM10.1094 24.5957L9.75666 24.9501L9.7567 24.9501L10.1094 24.5957ZM18.5098 27.5361L18.5098 27.0361H18.5098V27.5361ZM18.6992 27.5469L18.645 28.0439L18.6739 28.0471L18.703 28.0469L18.6992 27.5469ZM26.9707 24.9561L26.6832 24.547L26.683 24.5471L26.9707 24.9561ZM32.7793 17.8223L33.232 18.0345L33.232 18.0345L32.7793 17.8223ZM34.9004 7.46387L35.4004 7.46387V7.46387H34.9004ZM36.292 1.57324L36.2101 1.08L36.2099 1.08002L36.292 1.57324ZM37.9521 1.44922L37.9522 0.949219H37.9521V1.44922ZM39.5752 1.58203L39.4933 2.0753L39.4985 2.07611L39.5752 1.58203ZM42.8018 24.7695L43.2052 24.4742L43.2042 24.4728L42.8018 24.7695ZM48.6475 27.293L48.6474 27.793H48.6475V27.293ZM59.4727 1.57324L59.5529 2.06677L59.5546 2.06648L59.4727 1.57324ZM61.1318 1.44922L61.1318 0.949219L61.1318 0.949219L61.1318 1.44922ZM62.875 1.59082L62.7907 2.08369L62.7948 2.08434L62.875 1.59082ZM64.1846 3.12793L64.6846 3.12793L64.6846 3.12789L64.1846 3.12793ZM65.2812 25.5957L64.8482 25.8457L64.8482 25.8457L65.2812 25.5957ZM68.9697 27.4795L68.9698 26.9795H68.9697V27.4795ZM69.1475 27.4883L69.1135 27.9871L69.1342 27.9885L69.155 27.9882L69.1475 27.4883ZM72.8848 26.8877L73.0289 27.3665L73.0319 27.3656L72.8848 26.8877ZM77.5312 24.8086L77.7746 25.2454L78.2241 24.995L77.9609 24.5528L77.5312 24.8086ZM74.9404 14.5742L74.4404 14.5742V14.5742H74.9404ZM76.4707 7.57422L76.917 7.79969L76.9178 7.79809L76.4707 7.57422ZM80.7217 2.77637L80.4505 2.3563L80.4505 2.3563L80.7217 2.77637ZM86.8994 1.01758L86.8994 0.517578L86.8994 0.517578L86.8994 1.01758ZM92.0811 2.33203L91.8297 2.76425L91.8304 2.76468L92.0811 2.33203ZM95.6035 5.94824L96.0424 5.70865L96.0413 5.70663L95.6035 5.94824ZM96.8672 11.2607L97.3672 11.2607L97.3672 11.2607L96.8672 11.2607ZM94.377 18.7412L94.7797 19.0375L94.7797 19.0375L94.377 18.7412ZM85.9775 26.0967L85.6985 25.6818L84.9979 26.1529L85.7478 26.5408L85.9775 26.0967ZM91.6846 27.5723L91.6756 28.0723H91.6846V27.5723ZM95.5391 27.0566L95.6706 27.539L95.6714 27.5388L95.5391 27.0566ZM99.1904 25.5107L98.9591 25.0675L98.9573 25.0684L99.1904 25.5107ZM101.44 24.1602L101.16 23.7462L101.156 23.7489L101.44 24.1602ZM104.354 24.7998L103.922 25.0529L103.931 25.067L103.94 25.0806L104.354 24.7998ZM104.372 24.8271L104.804 24.5747L104.795 24.5603L104.786 24.5464L104.372 24.8271ZM104.935 26.2129L104.451 26.3385L104.451 26.3398L104.935 26.2129ZM104.308 28.2383L104.638 28.6137L104.639 28.6123L104.308 28.2383ZM100.979 30.5215L100.734 30.086L100.734 30.0861L100.979 30.5215ZM96.6084 32.2979L96.4775 31.8153L96.4774 31.8153L96.6084 32.2979ZM91.4268 33L91.4268 33.5L91.4298 33.5L91.4268 33ZM85.3877 31.9785L85.2153 32.4479L85.2153 32.4479L85.3877 31.9785ZM80.7402 29.1621L81.0885 28.8033L80.8122 28.5352L80.4824 28.7337L80.7402 29.1621ZM68.5234 33L68.3094 33.4519L68.411 33.5L68.5234 33.5L68.5234 33ZM68.5049 32.9912L68.7189 32.5393L68.6173 32.4912H68.5049V32.9912ZM68.4131 32.9854L68.4379 32.486L68.4271 32.4854L68.4163 32.4854L68.4131 32.9854ZM59.8779 27.6123L60.339 27.4188L59.9898 26.5869L59.4695 27.3239L59.8779 27.6123ZM55.1025 31.6104L55.3153 32.0628L55.3154 32.0628L55.1025 31.6104ZM48.1963 32.9873L48.1963 33.4873L48.1963 33.4873L48.1963 32.9873ZM35.8496 23.8369L36.3298 23.6976L36.0338 22.677L35.4362 23.5557L35.8496 23.8369ZM28.418 30.5527L28.6548 30.9931L28.6548 30.9931L28.418 30.5527ZM18.3311 32.9873L18.1781 33.4633L18.2527 33.4873L18.3311 33.4873L18.3311 32.9873ZM18.3037 32.9785L18.4567 32.5025L18.3821 32.4785H18.3037V32.9785ZM18.1689 32.9707L18.1963 32.4715L18.1788 32.4705L18.1613 32.4708L18.1689 32.9707ZM18.1133 32.9736L18.1133 32.4736L16.9062 32.4737L17.7597 33.3272L18.1133 32.9736ZM18.1221 32.9824L18.1221 33.4824L19.3292 33.4824L18.4756 32.6289L18.1221 32.9824ZM9.0957 31.001L9.32513 30.5567L9.32448 30.5564L9.0957 31.001ZM3.12109 25.4668L3.55009 25.21L3.54968 25.2093L3.12109 25.4668ZM1 17.1152L0.5 17.1152V17.1152H1ZM2.8623 8.76465L3.3068 8.99361L3.30715 8.99294L2.8623 8.76465ZM8.00781 3.07031L8.2748 3.49306L8.27518 3.49282L8.00781 3.07031ZM86.7061 6.3125L86.7061 5.8125H86.7061V6.3125ZM82.4277 8.55078L82.0285 8.24981L82.0284 8.24984L82.4277 8.55078ZM80.7314 14.0508L81.0659 14.4224L81.2314 14.2735V14.0508H80.7314ZM80.7217 14.0596L80.3872 13.6879L80.2217 13.8369L80.2217 14.0596L80.7217 14.0596ZM82.584 22.1172L82.1595 22.3815L82.4323 22.8194L82.8614 22.5331L82.584 22.1172ZM88.9922 16.4844L88.5943 16.1816L88.5935 16.1826L88.9922 16.4844ZM91.0859 11.2432L91.5859 11.2432V11.2432H91.0859ZM89.9238 7.62695L90.2991 7.2965L90.2974 7.29461L89.9238 7.62695ZM15.5312 1V1.5C17.589 1.5 19.454 1.87915 21.1342 2.63738L21.3398 2.18164L21.5455 1.7259C19.722 0.902976 17.7146 0.5 15.5312 0.5V1ZM21.3398 2.18164L21.1343 2.63743C22.3787 3.19867 23.4436 3.94534 24.3491 4.86865L24.7061 4.51855L25.063 4.16846C24.0692 3.15506 22.9012 2.3373 21.5454 1.72585L21.3398 2.18164ZM24.7061 4.51855L24.3471 4.86667C24.8492 5.38431 24.9208 6.18702 24.5238 6.76758L24.9365 7.0498L25.3493 7.33203C26.0212 6.34937 25.8897 5.02081 25.065 4.17044L24.7061 4.51855ZM24.9365 7.0498L24.5243 6.76687C24.1807 7.26744 23.745 7.71182 23.1978 8.08495L23.4795 8.49805L23.7612 8.91115C24.4126 8.46697 24.9363 7.93374 25.3488 7.33274L24.9365 7.0498ZM23.4795 8.49805L23.1956 8.08649C22.9316 8.2686 22.5497 8.36473 22.1492 8.34188C21.7483 8.31899 21.391 8.18064 21.1634 7.97054L20.8242 8.33789L20.485 8.70524C20.9214 9.10812 21.5182 9.30749 22.0922 9.34025C22.6668 9.37305 23.2805 9.24276 23.7634 8.9096L23.4795 8.49805ZM20.8242 8.33789L21.1609 7.96822C19.7108 6.64756 17.8882 5.99902 15.7246 5.99902V6.49902V6.99902C17.6733 6.99902 19.2453 7.57624 20.4876 8.70756L20.8242 8.33789ZM15.7246 6.49902L15.7246 5.99902C13.0247 5.99913 10.8064 6.98079 9.13747 8.95774L9.51953 9.28027L9.90159 9.60281C11.3674 7.86644 13.2983 6.99912 15.7246 6.99902L15.7246 6.49902ZM9.51953 9.28027L9.13839 8.95665C7.46453 10.928 6.65918 13.5599 6.65918 16.7959H7.15918H7.65918C7.65918 13.7245 8.42147 11.346 9.90067 9.6039L9.51953 9.28027ZM7.15918 16.7959L6.65918 16.7959C6.65921 20.0562 7.68155 22.8848 9.75666 24.9501L10.1094 24.5957L10.4621 24.2413C8.60977 22.3978 7.65921 19.8427 7.65918 16.7959L7.15918 16.7959ZM10.1094 24.5957L9.7567 24.9501C11.8497 27.0328 14.7869 28.0361 18.5098 28.0361V27.5361V27.0361C14.9669 27.0361 12.3154 26.0854 10.462 24.2413L10.1094 24.5957ZM18.5098 27.5361L18.5097 28.0361C18.5535 28.0361 18.5984 28.0388 18.645 28.0439L18.6992 27.5469L18.7534 27.0498C18.6761 27.0414 18.5947 27.0361 18.5098 27.0361L18.5098 27.5361ZM18.6992 27.5469L18.703 28.0469C21.8916 28.0229 24.743 27.135 27.2584 25.365L26.9707 24.9561L26.683 24.5471C24.3419 26.1945 21.6906 27.0244 18.6955 27.0469L18.6992 27.5469ZM26.9707 24.9561L27.2582 25.3651C29.7903 23.5858 31.7797 21.1331 33.232 18.0345L32.7793 17.8223L32.3266 17.6101C30.9391 20.5702 29.0562 22.8794 26.6832 24.547L26.9707 24.9561ZM32.7793 17.8223L33.232 18.0345C34.688 14.9282 35.4003 11.398 35.4004 7.46387L34.9004 7.46387L34.4004 7.46386C34.4003 11.2763 33.7104 14.6576 32.3266 17.6101L32.7793 17.8223ZM34.9004 7.46387H35.4004V3.16406H34.9004H34.4004V7.46387H34.9004ZM34.9004 3.16406H35.4004C35.4004 2.63294 35.7982 2.16226 36.374 2.06647L36.292 1.57324L36.2099 1.08002C35.1818 1.25103 34.4004 2.11408 34.4004 3.16406H34.9004ZM36.292 1.57324L36.3739 2.06648C36.8751 1.98322 37.4004 1.94922 37.9521 1.94922V1.44922V0.949219C37.3605 0.949219 36.7784 0.985583 36.2101 1.08L36.292 1.57324ZM37.9521 1.44922L37.9521 1.94922C38.4693 1.94922 38.9862 1.99104 39.4933 2.07527L39.5752 1.58203L39.6571 1.08879C39.0947 0.995356 38.523 0.949224 37.9522 0.949219L37.9521 1.44922ZM39.5752 1.58203L39.4985 2.07611C40.0454 2.16101 40.4395 2.64341 40.4395 3.19043H40.9395H41.4395C41.4395 2.17406 40.7091 1.25206 39.6519 1.08795L39.5752 1.58203ZM40.9395 3.19043H40.4395V16.6758H40.9395H41.4395V3.19043H40.9395ZM40.9395 16.6758H40.4395C40.4395 20.4228 41.0584 23.2478 42.3993 25.0663L42.8018 24.7695L43.2042 24.4728C42.0557 22.9153 41.4395 20.3557 41.4395 16.6758H40.9395ZM42.8018 24.7695L42.3983 25.0649C43.754 26.917 45.8826 27.7929 48.6474 27.793L48.6475 27.293L48.6475 26.793C46.1017 26.7929 44.3205 25.9979 43.2052 24.4742L42.8018 24.7695ZM48.6475 27.293V27.793C51.9429 27.793 54.4825 26.6215 56.1755 24.2385C57.8464 21.8868 58.6445 18.4214 58.6445 13.9219H58.1445H57.6445C57.6445 18.333 56.8567 21.5532 55.3604 23.6593C53.8862 25.7342 51.6773 26.793 48.6475 26.793V27.293ZM58.1445 13.9219H58.6445V3.08398H58.1445H57.6445V13.9219H58.1445ZM58.1445 3.08398H58.6445C58.6445 2.59708 59.0153 2.15413 59.5529 2.06677L59.4727 1.57324L59.3924 1.07972C58.3994 1.24111 57.6445 2.07838 57.6445 3.08398H58.1445ZM59.4727 1.57324L59.5546 2.06648C60.0557 1.98325 60.5804 1.94923 61.1318 1.94922L61.1318 1.44922L61.1318 0.949219C60.5403 0.949235 59.9589 0.985625 59.3907 1.08L59.4727 1.57324ZM61.1318 1.44922V1.94922C61.6792 1.94922 62.2505 1.99132 62.7907 2.08367L62.875 1.59082L62.9593 1.09797C62.3561 0.994871 61.7278 0.949219 61.1318 0.949219V1.44922ZM62.875 1.59082L62.7948 2.08434C63.3133 2.16864 63.6845 2.62216 63.6846 3.12797L64.1846 3.12793L64.6846 3.12789C64.6845 2.14133 63.9671 1.2618 62.9552 1.0973L62.875 1.59082ZM64.1846 3.12793H63.6846V20.3184H64.1846H64.6846V3.12793H64.1846ZM64.1846 20.3184H63.6846C63.6846 22.6195 64.0585 24.478 64.8482 25.8457L65.2812 25.5957L65.7143 25.3457C65.0472 24.1904 64.6846 22.5302 64.6846 20.3184H64.1846ZM65.2812 25.5957L64.8482 25.8457C65.6851 27.2951 67.0995 27.9795 68.9697 27.9795V27.4795V26.9795C67.373 26.9795 66.3342 26.4194 65.7143 25.3457L65.2812 25.5957ZM68.9697 27.4795L68.9697 27.9795C69.0091 27.9795 69.0459 27.9825 69.1135 27.9871L69.1475 27.4883L69.1814 26.9894C69.1336 26.9862 69.0523 26.9795 68.9698 26.9795L68.9697 27.4795ZM69.1475 27.4883L69.155 27.9882C70.4286 27.9691 71.7233 27.7596 73.0289 27.3665L72.8848 26.8877L72.7406 26.4089C71.5162 26.7776 70.3134 26.9707 69.14 26.9883L69.1475 27.4883ZM72.8848 26.8877L73.0319 27.3656C74.4025 26.9437 75.9841 26.2428 77.7746 25.2454L77.5312 24.8086L77.2879 24.3718C75.5381 25.3465 74.0223 26.0144 72.7377 26.4098L72.8848 26.8877ZM77.5312 24.8086L77.9609 24.5528C76.2898 21.7457 75.4404 18.4253 75.4404 14.5742H74.9404H74.4404C74.4404 18.5762 75.3246 22.0793 77.1016 25.0644L77.5312 24.8086ZM74.9404 14.5742L75.4404 14.5742C75.4405 11.992 75.9346 9.74407 76.917 7.79969L76.4707 7.57422L76.0244 7.34874C74.9602 9.45513 74.4405 11.8622 74.4404 14.5742L74.9404 14.5742ZM76.4707 7.57422L76.9178 7.79809C77.8937 5.849 79.2548 4.31856 80.9929 3.19643L80.7217 2.77637L80.4505 2.3563C78.5557 3.57956 77.0762 5.24833 76.0236 7.35035L76.4707 7.57422ZM80.7217 2.77637L80.9929 3.19643C82.7232 2.07936 84.6841 1.51758 86.8994 1.51758L86.8994 1.01758L86.8994 0.517578C84.5046 0.51758 82.353 1.12805 80.4505 2.3563L80.7217 2.77637ZM86.8994 1.01758V1.51758C88.7673 1.51758 90.4028 1.93441 91.8297 2.76425L92.0811 2.33203L92.3324 1.89981C90.7352 0.97089 88.9222 0.517578 86.8994 0.517578V1.01758ZM92.0811 2.33203L91.8304 2.76468C93.2528 3.58863 94.3602 4.73033 95.1658 6.18985L95.6035 5.94824L96.0413 5.70663C95.1503 4.09229 93.9152 2.8167 92.3317 1.89938L92.0811 2.33203ZM95.6035 5.94824L95.1647 6.18783C95.9585 7.64201 96.3672 9.32554 96.3672 11.2607L96.8672 11.2607L97.3672 11.2607C97.3672 9.18048 96.9266 7.32828 96.0424 5.70866L95.6035 5.94824ZM96.8672 11.2607H96.3672C96.3672 13.8786 95.5725 16.2719 93.9742 18.445L94.377 18.7412L94.7797 19.0375C96.5008 16.6975 97.3672 14.0977 97.3672 11.2607H96.8672ZM94.377 18.7412L93.9742 18.445C92.3644 20.6336 89.6163 23.0473 85.6985 25.6818L85.9775 26.0967L86.2565 26.5116C90.2125 23.8515 93.0702 21.3617 94.7797 19.0375L94.377 18.7412ZM85.9775 26.0967L85.7478 26.5408C87.0451 27.2117 89.1038 28.0259 91.6756 28.0722L91.6846 27.5723L91.6936 27.0723C89.3234 27.0297 87.4179 26.2787 86.2072 25.6526L85.9775 26.0967ZM91.6846 27.5723V28.0723C92.0194 28.0723 93.6502 28.09 95.6706 27.539L95.5391 27.0566L95.4075 26.5743C93.5185 27.0894 91.9952 27.0723 91.6846 27.0723V27.5723ZM95.5391 27.0566L95.6714 27.5388C97.2506 27.1054 98.3445 26.5218 99.4236 25.9531L99.1904 25.5107L98.9573 25.0684C97.8788 25.6369 96.8702 26.1728 95.4067 26.5745L95.5391 27.0566ZM99.1904 25.5107L99.4218 25.954C100.099 25.6008 100.855 25.1725 101.725 24.5715L101.44 24.1602L101.156 23.7489C100.329 24.3204 99.61 24.7278 98.9591 25.0675L99.1904 25.5107ZM101.44 24.1602L101.721 24.5741C102.482 24.0585 103.472 24.2851 103.922 25.0529L104.354 24.7998L104.785 24.5467C104.037 23.2718 102.39 22.9123 101.16 23.7463L101.44 24.1602ZM104.354 24.7998L103.94 25.0806L103.958 25.1079L104.372 24.8271L104.786 24.5464L104.767 24.5191L104.354 24.7998ZM104.372 24.8271L103.94 25.0796C104.197 25.5189 104.348 25.9444 104.451 26.3385L104.935 26.2129L105.419 26.0873C105.3 25.6286 105.118 25.1125 104.804 24.5747L104.372 24.8271ZM104.935 26.2129L104.451 26.3398C104.595 26.8903 104.419 27.4709 103.976 27.8642L104.308 28.2383L104.639 28.6123C105.358 27.9752 105.661 27.0101 105.418 26.086L104.935 26.2129ZM104.308 28.2383L103.977 27.8629C103.163 28.5791 102.005 29.3684 100.734 30.086L100.979 30.5215L101.225 30.9569C102.535 30.2177 103.756 29.3898 104.638 28.6137L104.308 28.2383ZM100.979 30.5215L100.734 30.0861C100.217 30.3779 98.6803 31.2175 96.4775 31.8153L96.6084 32.2979L96.7393 32.7804C99.0545 32.1522 100.672 31.2691 101.225 30.9568L100.979 30.5215ZM96.6084 32.2979L96.4774 31.8153C94.5629 32.3349 92.8275 32.4913 91.4237 32.5L91.4268 33L91.4298 33.5C92.9027 33.4909 94.7262 33.3268 96.7394 32.7804L96.6084 32.2979ZM91.4268 33V32.5H91.3623V33V33.5H91.4268V33ZM91.3623 33V32.5C89.2957 32.5 87.3629 32.1713 85.5601 31.5092L85.3877 31.9785L85.2153 32.4479C87.1373 33.1537 89.1878 33.5 91.3623 33.5V33ZM85.3877 31.9785L85.5601 31.5092C83.7519 30.8451 82.2657 29.9461 81.0885 28.8033L80.7402 29.1621L80.392 29.5209C81.6858 30.7768 83.2985 31.7438 85.2153 32.4479L85.3877 31.9785ZM80.7402 29.1621L80.4824 28.7337C76.2886 31.2581 72.3109 32.4999 68.5234 32.5L68.5234 33L68.5234 33.5C72.5363 33.4999 76.6908 32.1832 80.9981 29.5905L80.7402 29.1621ZM68.5234 33L68.7375 32.5481L68.7189 32.5393L68.5049 32.9912L68.2908 33.4431L68.3094 33.4519L68.5234 33ZM68.5049 32.9912V32.4912C68.5113 32.4912 68.5131 32.4916 68.5003 32.4906C68.4974 32.4903 68.4944 32.4901 68.4902 32.4897C68.4863 32.4894 68.4815 32.489 68.4764 32.4885C68.4663 32.4877 68.4529 32.4867 68.4379 32.486L68.4131 32.9854L68.3883 33.4847C68.3882 33.4847 68.3887 33.4848 68.3899 33.4848C68.3911 33.4849 68.3928 33.4851 68.3953 33.4853C68.4045 33.486 68.403 33.4859 68.4172 33.4871C68.435 33.4886 68.4676 33.4912 68.5049 33.4912V32.9912ZM68.4131 32.9854L68.4163 32.4854C66.3874 32.4724 64.7232 32.0333 63.397 31.1982C62.0736 30.3649 61.0511 29.1151 60.339 27.4188L59.8779 27.6123L59.4169 27.8058C60.1964 29.6629 61.3423 31.0862 62.8641 32.0444C64.383 33.0008 66.2406 33.4715 68.4099 33.4853L68.4131 32.9854ZM59.8779 27.6123L59.4695 27.3239C58.2843 29.0027 56.7574 30.2794 54.8897 31.1579L55.1025 31.6104L55.3154 32.0628C57.3384 31.1112 59.0006 29.722 60.2864 27.9007L59.8779 27.6123ZM55.1025 31.6104L54.8897 31.1579C53.0242 32.0353 50.7944 32.4873 48.1963 32.4873L48.1963 32.9873L48.1963 33.4873C50.9088 33.4873 53.29 33.0154 55.3153 32.0628L55.1025 31.6104ZM48.1963 32.9873V32.4873C45.0433 32.4873 42.5117 31.7449 40.5607 30.2991C38.6106 28.8539 37.192 26.6699 36.3298 23.6976L35.8496 23.8369L35.3694 23.9762C36.2776 27.1071 37.8006 29.4983 39.9653 31.1025C42.1293 32.7061 44.8858 33.4873 48.1963 33.4873V32.9873ZM35.8496 23.8369L35.4362 23.5557C33.5355 26.3504 31.1154 28.534 28.1811 30.1124L28.418 30.5527L28.6548 30.9931C31.7321 29.3378 34.2728 27.0444 36.2631 24.1181L35.8496 23.8369ZM28.418 30.5527L28.1811 30.1124C25.2537 31.6871 21.9709 32.4873 18.3311 32.4873L18.3311 32.9873L18.3311 33.4873C22.1228 33.4873 25.5705 32.6522 28.6548 30.9931L28.418 30.5527ZM18.3311 32.9873L18.4841 32.5113L18.4567 32.5025L18.3037 32.9785L18.1507 33.4545L18.1781 33.4633L18.3311 32.9873ZM18.3037 32.9785V32.4785C18.2723 32.4785 18.2875 32.4765 18.1963 32.4715L18.1689 32.9707L18.1415 33.47C18.1577 33.4708 18.1671 33.4718 18.1992 33.4742C18.2252 33.4761 18.2623 33.4785 18.3037 33.4785V32.9785ZM18.1689 32.9707L18.1613 32.4708C18.1463 32.471 18.1333 32.4717 18.124 32.4722C18.1154 32.4728 18.1068 32.4735 18.1037 32.4737C18.0992 32.474 18.0991 32.474 18.1001 32.474C18.1015 32.4739 18.1063 32.4736 18.1133 32.4736L18.1133 32.9736L18.1133 33.4736C18.1438 33.4736 18.1705 33.4715 18.1787 33.4709C18.1816 33.4706 18.1829 33.4705 18.1845 33.4704C18.1858 33.4703 18.1862 33.4703 18.1861 33.4703C18.1861 33.4703 18.1824 33.4706 18.1766 33.4706L18.1689 32.9707ZM18.1133 32.9736L17.7597 33.3272L17.7685 33.336L18.1221 32.9824L18.4756 32.6289L18.4668 32.6201L18.1133 32.9736ZM18.1221 32.9824L18.1221 32.4824C14.7374 32.4824 11.8043 31.837 9.32513 30.5567L9.0957 31.001L8.86628 31.4452C11.5135 32.8123 14.6101 33.4824 18.1221 33.4824L18.1221 32.9824ZM9.0957 31.001L9.32448 30.5564C6.83133 29.2735 4.92 27.4983 3.55009 25.21L3.12109 25.4668L2.69209 25.7236C4.16205 28.179 6.21533 30.0812 8.86693 31.4456L9.0957 31.001ZM3.12109 25.4668L3.54968 25.2093C2.18413 22.9367 1.5 20.2389 1.5 17.1152H1H0.5C0.5 20.3881 1.21816 23.2706 2.69251 25.7243L3.12109 25.4668ZM1 17.1152L1.5 17.1152C1.50005 13.9842 2.10398 11.3287 3.3068 8.99361L2.8623 8.76465L2.41781 8.53569C1.13128 11.0333 0.500047 13.8502 0.5 17.1152L1 17.1152ZM2.8623 8.76465L3.30715 8.99294C4.50382 6.66109 6.15951 4.82897 8.2748 3.49306L8.00781 3.07031L7.74083 2.64756C5.46719 4.08347 3.69186 6.05307 2.41746 8.53636L2.8623 8.76465ZM8.00781 3.07031L8.27518 3.49282C10.3634 2.17136 12.7857 1.50002 15.5313 1.5L15.5312 1L15.5312 0.5C12.6156 0.500024 10.0041 1.21531 7.74044 2.6478L8.00781 3.07031ZM86.7061 6.3125V5.8125C84.8109 5.8125 83.239 6.64393 82.0285 8.24981L82.4277 8.55078L82.827 8.85175C83.8662 7.4731 85.153 6.8125 86.7061 6.8125V6.3125ZM82.4277 8.55078L82.0284 8.24984C80.8288 9.8415 80.2314 11.7823 80.2314 14.0508H80.7314H81.2314C81.2314 11.9661 81.7769 10.2451 82.827 8.85172L82.4277 8.55078ZM80.7314 14.0508L80.397 13.6791L80.3872 13.6879L80.7217 14.0596L81.0562 14.4312L81.0659 14.4224L80.7314 14.0508ZM80.7217 14.0596L80.2217 14.0596C80.2217 17.4808 80.8482 20.2756 82.1595 22.3815L82.584 22.1172L83.0084 21.8529C81.8303 19.961 81.2217 17.3721 81.2217 14.0596L80.7217 14.0596ZM82.584 22.1172L82.8614 22.5331C85.7631 20.5976 87.9521 18.6865 89.3908 16.7862L88.9922 16.4844L88.5935 16.1826C87.2477 17.9602 85.1584 19.7989 82.3065 21.7012L82.584 22.1172ZM88.9922 16.4844L89.3901 16.7871C90.8232 14.9034 91.5859 13.0494 91.5859 11.2432L91.0859 11.2432L90.5859 11.2432C90.5859 12.7595 89.9457 14.4052 88.5943 16.1816L88.9922 16.4844ZM91.0859 11.2432H91.5859C91.5859 9.62229 91.1758 8.29214 90.2991 7.29651L89.9238 7.62695L89.5486 7.9574C90.2209 8.7208 90.5859 9.79017 90.5859 11.2432H91.0859ZM89.9238 7.62695L90.2974 7.29461C89.4128 6.30028 88.1977 5.81256 86.7061 5.8125L86.7061 6.3125L86.706 6.8125C87.9617 6.81255 88.886 7.21263 89.5503 7.9593L89.9238 7.62695Z" fill="black"/>
</mask>
<g mask="url(#mask0_698_41291)">
<rect x="-1.10034" y="-39.0001" width="114.401" height="110" fill="#4376C1"/>
<g filter="url(#filter0_f_698_41291)">
<ellipse cx="94.2203" cy="68.7072" rx="73.1973" ry="67.1994" fill="white"/>
</g>
<g filter="url(#filter1_f_698_41291)">
<ellipse cx="107.399" cy="86.5536" rx="73.1973" ry="67.1994" fill="#FB7C45"/>
</g>
<g filter="url(#filter2_f_698_41291)">
<ellipse cx="53.4702" cy="89.0447" rx="40.719" ry="37.3824" fill="#F54C4C"/>
</g>
</g>
<defs>
<filter id="filter0_f_698_41291" x="-41.0251" y="-60.5402" width="270.491" height="258.495" filterUnits="userSpaceOnUse" color-interpolation-filters="sRGB">
<feFlood flood-opacity="0" result="BackgroundImageFix"/>
<feBlend mode="normal" in="SourceGraphic" in2="BackgroundImageFix" result="shape"/>
<feGaussianBlur stdDeviation="31.024" result="effect1_foregroundBlur_698_41291"/>
</filter>
<filter id="filter1_f_698_41291" x="-11.1414" y="-25.9886" width="237.08" height="225.084" filterUnits="userSpaceOnUse" color-interpolation-filters="sRGB">
<feFlood flood-opacity="0" result="BackgroundImageFix"/>
<feBlend mode="normal" in="SourceGraphic" in2="BackgroundImageFix" result="shape"/>
<feGaussianBlur stdDeviation="22.6714" result="effect1_foregroundBlur_698_41291"/>
</filter>
<filter id="filter2_f_698_41291" x="-49.2968" y="-10.3858" width="205.534" height="198.861" filterUnits="userSpaceOnUse" color-interpolation-filters="sRGB">
<feFlood flood-opacity="0" result="BackgroundImageFix"/>
<feBlend mode="normal" in="SourceGraphic" in2="BackgroundImageFix" result="shape"/>
<feGaussianBlur stdDeviation="31.024" result="effect1_foregroundBlur_698_41291"/>
</filter>
</defs>
</svg>
